<?xml version="1.0" encoding="UTF-8" standalone="no"?>
<!-- Generator: Adobe Illustrator 26.4.1, SVG Export Plug-In . SVG Version: 6.00 Build 0)  -->

<svg
   xmlns:dc="http://purl.org/dc/elements/1.1/"
   xmlns:cc="http://creativecommons.org/ns#"
   xmlns:rdf="http://www.w3.org/1999/02/22-rdf-syntax-ns#"
   xmlns:svg="http://www.w3.org/2000/svg"
   xmlns="http://www.w3.org/2000/svg"
   xmlns:sodipodi="http://sodipodi.sourceforge.net/DTD/sodipodi-0.dtd"
   xmlns:inkscape="http://www.inkscape.org/namespaces/inkscape"
   version="1.1"
   id="Ebene_1"
   x="0px"
   y="0px"
   viewBox="0 0 216.73557 28"
   xml:space="preserve"
   sodipodi:docname="labs_logo.svg"
   width="216.73557"
   height="28"
   inkscape:version="0.92.5 (2060ec1f9f, 2020-04-08)"><metadata
   id="metadata55"><rdf:RDF><cc:Work
       rdf:about=""><dc:format>image/svg+xml</dc:format><dc:type
         rdf:resource="http://purl.org/dc/dcmitype/StillImage" /><dc:title></dc:title></cc:Work></rdf:RDF></metadata><defs
   id="defs53" /><sodipodi:namedview
   pagecolor="#ffffff"
   bordercolor="#666666"
   borderopacity="1"
   objecttolerance="10"
   gridtolerance="10"
   guidetolerance="10"
   inkscape:pageopacity="0"
   inkscape:pageshadow="2"
   inkscape:window-width="2883"
   inkscape:window-height="1467"
   id="namedview51"
   showgrid="false"
   inkscape:pagecheckerboard="true"
   inkscape:zoom="6.3859502"
   inkscape:cx="5.5266609"
   inkscape:cy="-16.214123"
   inkscape:window-x="882"
   inkscape:window-y="443"
   inkscape:window-maximized="0"
   inkscape:current-layer="Ebene_1"
   fit-margin-top="0"
   fit-margin-left="0"
   fit-margin-right="0"
   fit-margin-bottom="0" />
<style
   type="text/css"
   id="style2">
	.st0{fill:#FFFFFF;}
</style>
<g
   id="g18"
   transform="matrix(0.44102893,0,0,0.44102893,0,-0.00225041)">
	<path
   class="st0"
   d="m 23.72,20.163 c 5.042,0 8.964,2.332 11.973,7.121 l 7.915,-5.377 C 39.544,14.74 32.353,10.643 23.789,10.643 10.449,10.643 0,20.642 0,33.405 c 0,12.763 10.419,22.761 23.72,22.761 8.607,0 15.822,-4.097 19.887,-11.264 l -7.915,-5.378 c -3.008,4.791 -6.93,7.121 -11.973,7.121 -7.636,0 -12.969,-5.417 -12.969,-13.173 10e-4,-7.836 5.334,-13.309 12.97,-13.309 z"
   id="path4"
   inkscape:connector-curvature="0"
   style="fill:#ffffff" />
	<polygon
   class="st0"
   points="77.356,11.464 66.879,11.464 66.879,55.345 96.043,55.345 96.043,46.031 77.356,46.031 "
   id="polygon6"
   style="fill:#ffffff" />
	<path
   class="st0"
   d="M 204.117,29.691 198.914,27.5 c -2.787,-1.155 -4.298,-2.182 -4.298,-4.293 0,-2.238 1.708,-3.522 4.685,-3.522 3.53,0 5.644,1.782 7.605,4.513 l 6.902,-5.282 c -2.085,-3.883 -6.292,-8.272 -14.643,-8.272 -9.07,0 -15.165,5.104 -15.165,12.7 0,5.664 3.407,9.682 11.044,13.027 l 4.655,2.055 c 3.1,1.347 4.972,2.161 4.972,4.768 0,1.794 -0.919,3.933 -5.302,3.933 -5.029,0 -7.989,-2.728 -10.185,-5.558 l -6.98,5.293 c 3.317,5.837 9.69,9.305 17.165,9.305 9.52,0 15.917,-5.406 15.917,-13.453 0.001,-5.933 -3.235,-9.706 -11.169,-13.023 z"
   id="path8"
   inkscape:connector-curvature="0"
   style="fill:#ffffff" />
	<path
   class="st0"
   d="m 259.677,10.643 c -13.262,0 -23.652,9.998 -23.652,22.762 0,12.764 10.39,22.761 23.652,22.761 13.339,0 23.788,-9.998 23.788,-22.761 0,-12.763 -10.449,-22.762 -23.788,-22.762 z m 0.068,36.003 c -7.757,0 -12.968,-5.321 -12.968,-13.241 0,-7.797 5.332,-13.243 12.968,-13.243 7.513,0 12.967,5.57 12.967,13.243 0,7.797 -5.332,13.241 -12.967,13.241 z"
   id="path10"
   inkscape:connector-curvature="0"
   style="fill:#ffffff" />
	<rect
   x="131.52699"
   y="45.998001"
   class="st0"
   width="10.47"
   height="17.495001"
   id="rect12"
   style="fill:#ffffff" />
	
		<rect
   x="108.244"
   y="1.409"
   transform="matrix(0.8105,-0.5857,0.5857,0.8105,15.5556,68.3939)"
   class="st0"
   width="10.47"
   height="17.495001"
   id="rect14"
   style="fill:#ffffff" />
	
		<rect
   x="151.30099"
   y="4.9219999"
   transform="matrix(0.5854,-0.8107,0.8107,0.5854,58.1179,133.9672)"
   class="st0"
   width="17.495001"
   height="10.47"
   id="rect16"
   style="fill:#ffffff" />
</g>
<g
   id="g20"
   transform="translate(0,-35.493002)">
</g>
<g
   id="g22"
   transform="translate(0,-35.493002)">
</g>
<g
   id="g24"
   transform="translate(0,-35.493002)">
</g>
<g
   id="g26"
   transform="translate(0,-35.493002)">
</g>
<g
   id="g28"
   transform="translate(0,-35.493002)">
</g>
<g
   id="g30"
   transform="translate(0,-35.493002)">
</g>
<g
   id="g32"
   transform="translate(0,-35.493002)">
</g>
<g
   id="g34"
   transform="translate(0,-35.493002)">
</g>
<g
   id="g36"
   transform="translate(0,-35.493002)">
</g>
<g
   id="g38"
   transform="translate(0,-35.493002)">
</g>
<g
   id="g40"
   transform="translate(0,-35.493002)">
</g>
<g
   id="g42"
   transform="translate(0,-35.493002)">
</g>
<g
   id="g44"
   transform="translate(0,-35.493002)">
</g>
<g
   id="g46"
   transform="translate(0,-35.493002)">
</g>
<g
   id="g48"
   transform="translate(0,-35.493002)">
</g>
<path
   style="font-style:normal;font-variant:normal;font-weight:900;font-stretch:normal;font-size:64px;line-height:1.25;font-family:Inter;-inkscape-font-specification:'Inter, Heavy';font-variant-ligatures:normal;font-variant-caps:normal;font-variant-numeric:normal;font-feature-settings:normal;text-align:start;letter-spacing:0px;word-spacing:0px;writing-mode:lr-tb;text-anchor:start;fill:#d7ff84;fill-opacity:0.94117647;stroke:none;stroke-width:0.44102889"
   d="m 208.58687,4.0876037 c -1.55696,0 -2.94346,0.2673685 -4.15962,0.8019489 -1.21617,0.5345804 -2.16894,1.2797313 -2.85722,2.2352933 -0.68827,0.955563 -1.02828,2.068237 -1.0216,3.3378661 -0.007,1.556965 0.50054,2.792791 1.52292,3.70826 1.02239,0.908787 2.42264,1.567538 4.20012,1.975155 l 2.14485,0.500465 c 0.7484,0.173738 1.3631,0.364809 1.84422,0.571959 0.4878,0.200468 0.84888,0.441186 1.08276,0.72184 0.23388,0.273973 0.35424,0.604744 0.36092,0.992316 -0.007,0.414299 -0.13714,0.781824 -0.39106,1.102571 -0.25394,0.320748 -0.61781,0.570707 -1.09224,0.751128 -0.46776,0.180421 -1.03646,0.270475 -1.70468,0.270475 -0.72837,0 -1.36971,-0.113051 -1.92434,-0.340247 -0.54794,-0.227197 -0.97887,-0.561623 -1.29293,-1.002652 -0.31407,-0.441029 -0.49139,-0.992315 -0.53148,-1.653859 h -4.75053 c 0.02,1.603742 0.38391,2.930483 1.09223,3.979598 0.70832,1.049114 1.70064,1.831016 2.97695,2.34555 1.27631,0.514534 2.77306,0.771801 4.49039,0.771801 1.71066,0 3.17066,-0.247166 4.38015,-0.741653 1.21617,-0.494487 2.14873,-1.206538 2.79691,-2.135372 0.64818,-0.928833 0.9753,-2.041508 0.98198,-3.337866 -0.007,-0.821917 -0.14638,-1.563413 -0.42035,-2.224956 -0.27398,-0.661544 -0.67825,-1.245927 -1.21283,-1.753779 -0.52791,-0.507851 -1.183,-0.946088 -1.96482,-1.313611 -0.77515,-0.367525 -1.67097,-0.661544 -2.68667,-0.882058 l -1.76411,-0.400544 c -0.46776,-0.100234 -0.88859,-0.2178 -1.26279,-0.351445 -0.37421,-0.133645 -0.69487,-0.287102 -0.96217,-0.460841 -0.26061,-0.180421 -0.46091,-0.387179 -0.60125,-0.621058 -0.13363,-0.233879 -0.19425,-0.504902 -0.18088,-0.812286 0.007,-0.3742061 0.11693,-0.7049781 0.33076,-0.9923151 0.21384,-0.294019 0.53451,-0.524635 0.96217,-0.691692 0.42767,-0.167056 0.9624,-0.250663 1.6039,-0.250663 0.96893,0 1.71408,0.20762 2.23529,0.62192 0.5279,0.407617 0.82558,0.979107 0.8924,1.7141551 h 4.75053 c -0.0134,-1.2763111 -0.34413,-2.3990861 -0.99231,-3.3680131 -0.64818,-0.968928 -1.55968,-1.7205247 -2.73576,-2.2551059 -1.16939,-0.5412619 -2.54943,-0.8122853 -4.13981,-0.8122853 z M 143.75992,4.3684149 V 24.896072 h 13.50134 V 20.866514 H 148.7215 V 4.3684149 Z m 22.3581,0 -6.92639,20.5276571 h 5.33197 l 1.35065,-4.309507 h 7.0892 l 1.35324,4.309507 h 5.33282 L 172.72312,4.3684149 Z m 15.74611,0 V 24.896072 h 9.21165 c 1.51687,0 2.80686,-0.247165 3.86935,-0.741652 1.06247,-0.50117 1.87382,-1.182916 2.43512,-2.044927 0.56131,-0.868694 0.84244,-1.8537 0.84244,-2.956272 0,-0.988974 -0.21407,-1.844381 -0.64173,-2.566066 -0.42767,-0.728365 -0.9955,-1.297062 -1.70382,-1.704679 -0.70164,-0.407618 -1.46699,-0.630925 -2.29559,-0.671019 v -0.200702 c 0.75509,-0.160375 1.42029,-0.440638 1.99497,-0.841574 0.57467,-0.400935 1.0258,-0.905366 1.35323,-1.513452 0.32743,-0.614768 0.49099,-1.313064 0.49099,-2.0948871 0,-1.029068 -0.26371,-1.934983 -0.79161,-2.716807 -0.52122,-0.781825 -1.30313,-1.3900662 -2.34555,-1.8244127 -1.03575,-0.4343473 -2.32208,-0.6512073 -3.859,-0.6512073 z m 4.96158,3.939113 h 2.82707 c 0.82859,0 1.48648,0.197517 1.97428,0.591771 0.48781,0.394252 0.73219,0.935437 0.73219,1.6237091 0,0.481122 -0.12037,0.891847 -0.36092,1.232642 -0.23389,0.340795 -0.56186,0.601716 -0.98285,0.782137 -0.42098,0.180421 -0.90155,0.270474 -1.44281,0.270474 h -2.74696 z m -17.49042,1.232641 h 0.16022 l 2.28439,7.2769771 h -4.72469 z m 17.49042,6.4655521 h 3.15783 c 0.63482,0 1.17966,0.106603 1.63406,0.320436 0.45438,0.207149 0.8045,0.504823 1.05174,0.892394 0.24725,0.380888 0.37126,0.834812 0.37126,1.36271 0,0.728367 -0.25727,1.296202 -0.7718,1.703819 -0.50785,0.407617 -1.29986,0.611583 -2.3757,0.611583 h -3.06739 z"
   id="text864"
   inkscape:connector-curvature="0" /></svg>