<?xml version="1.0" encoding="UTF-8" standalone="no"?>
<!-- Generator: Adobe Illustrator 26.4.1, SVG Export Plug-In . SVG Version: 6.00 Build 0)  -->

<svg
   xmlns:dc="http://purl.org/dc/elements/1.1/"
   xmlns:cc="http://creativecommons.org/ns#"
   xmlns:rdf="http://www.w3.org/1999/02/22-rdf-syntax-ns#"
   xmlns:svg="http://www.w3.org/2000/svg"
   xmlns="http://www.w3.org/2000/svg"
   xmlns:sodipodi="http://sodipodi.sourceforge.net/DTD/sodipodi-0.dtd"
   xmlns:inkscape="http://www.inkscape.org/namespaces/inkscape"
   version="1.1"
   id="Ebene_1"
   x="0px"
   y="0px"
   viewBox="0 0 107.1568 28"
   xml:space="preserve"
   sodipodi:docname="web_logo.svg"
   width="107.1568"
   height="28"
   inkscape:version="0.92.5 (2060ec1f9f, 2020-04-08)"><metadata
   id="metadata55"><rdf:RDF><cc:Work
       rdf:about=""><dc:format>image/svg+xml</dc:format><dc:type
         rdf:resource="http://purl.org/dc/dcmitype/StillImage" /><dc:title></dc:title></cc:Work></rdf:RDF></metadata><defs
   id="defs53" /><sodipodi:namedview
   pagecolor="#ffffff"
   bordercolor="#666666"
   borderopacity="1"
   objecttolerance="10"
   gridtolerance="10"
   guidetolerance="10"
   inkscape:pageopacity="0"
   inkscape:pageshadow="2"
   inkscape:window-width="2588"
   inkscape:window-height="1130"
   id="namedview51"
   showgrid="false"
   inkscape:pagecheckerboard="true"
   fit-margin-top="0"
   fit-margin-left="0"
   fit-margin-right="0"
   fit-margin-bottom="4"
   inkscape:zoom="6.3859503"
   inkscape:cx="-36.059493"
   inkscape:cy="36.144845"
   inkscape:window-x="652"
   inkscape:window-y="592"
   inkscape:window-maximized="0"
   inkscape:current-layer="g869" />
<style
   type="text/css"
   id="style2">
	.st0{fill:#FFFFFF;}
</style>
<g
   id="g18"
   transform="translate(0,-39.493002)">
	
	
	
	
	
	
		
	
		<g
   id="g869"
   transform="matrix(0.45155487,0,0,0.45155487,0,34.822428)"><path
     style="fill:#ffffff;stroke-width:0.83716249"
     inkscape:connector-curvature="0"
     id="path4"
     d="m 19.857494,27.21875 c 4.220973,0 7.504324,1.952263 10.023346,5.961434 l 6.626141,-4.501422 C 33.104753,22.678818 27.084718,19.248963 19.915258,19.248963 8.7475107,19.248963 0,27.619751 0,38.304456 0,48.98916 8.7223958,57.359111 19.857494,57.359111 c 7.205457,0 13.245585,-3.429855 16.64865,-9.429798 l -6.626141,-4.50226 c -2.518185,4.010845 -5.801536,5.961434 -10.023346,5.961434 -6.392573,0 -10.8571604,-4.534909 -10.8571604,-11.027941 C 9.0003338,31.80054 13.464921,27.21875 19.857494,27.21875 Z"
     class="st0" /><polygon
     style="fill:#ffffff"
     id="polygon6"
     points="77.356,11.464 66.879,11.464 66.879,55.345 96.043,55.345 96.043,46.031 77.356,46.031 "
     class="st0"
     transform="matrix(0.83716248,0,0,0.83716248,0,10.339043)" /><path
     style="fill:#ffffff;stroke-width:0.83716249"
     inkscape:connector-curvature="0"
     id="path8"
     d="m 170.87909,35.195234 -4.35575,-1.834223 c -2.33317,-0.966922 -3.59813,-1.826688 -3.59813,-3.593938 0,-1.87357 1.42988,-2.948486 3.92211,-2.948486 2.95518,0 4.72494,1.491823 6.36662,3.778114 l 5.77809,-4.421892 c -1.74548,-3.250702 -5.26742,-6.925008 -12.25857,-6.925008 -7.59306,0 -12.69556,4.272877 -12.69556,10.631963 0,4.741688 2.85221,8.105407 9.24562,10.905716 l 3.89699,1.720369 c 2.5952,1.127657 4.16237,1.809108 4.16237,3.99159 0,1.50187 -0.76935,3.29256 -4.43863,3.29256 -4.21009,0 -6.6881,-2.283779 -8.5265,-4.652949 l -5.8434,4.431101 c 2.77687,4.886518 8.11211,7.789797 14.3699,7.789797 7.96978,0 13.32511,-4.5257 13.32511,-11.262347 8.4e-4,-4.966885 -2.70822,-8.125499 -9.35027,-10.902367 z"
     class="st0" /><path
     style="fill:#ffffff;stroke-width:0.83716249"
     inkscape:connector-curvature="0"
     id="path10"
     d="m 217.39184,19.248963 c -11.10245,0 -19.80057,8.369951 -19.80057,19.055493 0,10.685542 8.69812,19.054655 19.80057,19.054655 11.16691,0 19.91442,-8.369951 19.91442,-19.054655 0,-10.684705 -8.74751,-19.055493 -19.91442,-19.055493 z m 0.0569,30.140361 c -6.49387,0 -10.85633,-4.454541 -10.85633,-11.084868 0,-6.527356 4.46375,-11.086543 10.85633,-11.086543 6.2896,0 10.85548,4.662995 10.85548,11.086543 0,6.527356 -4.46375,11.084868 -10.85548,11.084868 z"
     class="st0" /><rect
     style="fill:#ffffff;stroke-width:0.83716249"
     id="rect12"
     height="14.646158"
     width="8.7650909"
     class="st0"
     y="48.846844"
     x="110.10947" /><rect
     style="fill:#ffffff;stroke-width:0.83714354"
     id="rect14"
     height="14.645826"
     width="8.7648926"
     class="st0"
     transform="rotate(-35.853394)"
     y="63.5947"
     x="61.57901" /><rect
     style="fill:#ffffff;stroke-width:0.83713222"
     id="rect16"
     height="8.7647743"
     width="14.645628"
     class="st0"
     transform="rotate(-54.16725)"
     y="115.27473"
     x="55.834755" /></g>
</g>
<g
   id="g20"
   transform="translate(0,-39.493002)">
</g>
<g
   id="g22"
   transform="translate(0,-39.493002)">
</g>
<g
   id="g24"
   transform="translate(0,-39.493002)">
</g>
<g
   id="g26"
   transform="translate(0,-39.493002)">
</g>
<g
   id="g28"
   transform="translate(0,-39.493002)">
</g>
<g
   id="g30"
   transform="translate(0,-39.493002)">
</g>
<g
   id="g32"
   transform="translate(0,-39.493002)">
</g>
<g
   id="g34"
   transform="translate(0,-39.493002)">
</g>
<g
   id="g36"
   transform="translate(0,-39.493002)">
</g>
<g
   id="g38"
   transform="translate(0,-39.493002)">
</g>
<g
   id="g40"
   transform="translate(0,-39.493002)">
</g>
<g
   id="g42"
   transform="translate(0,-39.493002)">
</g>
<g
   id="g44"
   transform="translate(0,-39.493002)">
</g>
<g
   id="g46"
   transform="translate(0,-39.493002)">
</g>
<g
   id="g48"
   transform="translate(0,-39.493002)">
</g>
</svg>